<svg width="14" height="10" viewBox="0 0 14 10" fill="none" xmlns="http://www.w3.org/2000/svg">
<path d="M0.333496 5.33332V4.66665C0.333496 4.48255 0.482735 4.33332 0.666829 4.33332H11.4468L8.48016 1.37332C8.41706 1.31073 8.38156 1.22553 8.38156 1.13665C8.38156 1.04777 8.41706 0.962572 8.48016 0.899983L8.9535 0.433316C9.01609 0.370212 9.10128 0.334717 9.19016 0.334717C9.27904 0.334717 9.36424 0.370212 9.42683 0.433316L13.5202 4.51998C13.614 4.61366 13.6667 4.74075 13.6668 4.87332V5.12665C13.6653 5.25893 13.6128 5.3855 13.5202 5.47998L9.42683 9.56665C9.36424 9.62975 9.27904 9.66525 9.19016 9.66525C9.10128 9.66525 9.01609 9.62975 8.9535 9.56665L8.48016 9.09332C8.41745 9.03187 8.38212 8.94778 8.38212 8.85998C8.38212 8.77219 8.41745 8.68809 8.48016 8.62665L11.4468 5.66665H0.666829C0.482735 5.66665 0.333496 5.51741 0.333496 5.33332Z" fill="#090A0A"/>
</svg>
