<svg width="14" height="14" viewBox="0 0 14 14" fill="none" xmlns="http://www.w3.org/2000/svg">
<path fill-rule="evenodd" clip-rule="evenodd" d="M13.6668 6.99992C13.6668 10.6818 10.6821 13.6666 7.00016 13.6666C5.23205 13.6666 3.53636 12.9642 2.28612 11.714C1.03588 10.4637 0.333496 8.76803 0.333496 6.99992C0.333496 3.31802 3.31826 0.333252 7.00016 0.333252C10.6821 0.333252 13.6668 3.31802 13.6668 6.99992ZM6.76016 5.09992L4.76016 7.09992C4.66596 7.19602 4.63878 7.33934 4.69127 7.46326C4.74375 7.58717 4.86559 7.66738 5.00016 7.66658H9.00016C9.13352 7.66471 9.25292 7.58353 9.30371 7.4602C9.35449 7.33688 9.32687 7.19515 9.2335 7.09992L7.2335 5.09992C7.10162 4.97206 6.89204 4.97206 6.76016 5.09992Z" fill="#090A0A"/>
</svg>
